<?xml version="1.0" encoding="UTF-8"?>
<svg width="42px" height="42px" viewBox="0 0 42 42" version="1.1" xmlns="http://www.w3.org/2000/svg" xmlns:xlink="http://www.w3.org/1999/xlink">
    <!-- Generator: Sketch 61 (89581) - https://sketch.com -->
    <title>ec-email</title>
    <desc>Created with Sketch.</desc>
    <g id="ec-email" stroke="none" stroke-width="1" fill="none" fill-rule="evenodd">
        <path d="M24,38 L24,40 L18,40 L18,38 L24,38 Z M8,22 L8,32 L4,32 L4,38 L14,38 L14,34 L28,34 L28,38 L38,38 L38,32 L34,32 L34,22 L36,22 L36,30 L40,30 L40,40 L26,40 L26,36 L16,36 L16,40 L2,40 L2,30 L6,30 L6,22 L8,22 Z M36,34 L36,36 L30,36 L30,34 L36,34 Z M12,34 L12,36 L6,36 L6,34 L12,34 Z M14,30 L14,32 L11,32 L11,30 L14,30 Z M31,30 L31,32 L28,32 L28,30 L31,30 Z M26,30 L26,32 L16,32 L16,30 L26,30 Z M4,14 L4,28 L2,28 L2,14 L4,14 Z M40,14 L40,28 L38,28 L38,14 L40,14 Z M31,16 L31,28 L11,28 L11,16 L21,21 L31,16 Z M16,2 L16,6 L26,6 L26,2 L40,2 L40,12 L36,12 L36,20 L34,20 L34,10 L38,10 L38,4 L28,4 L28,8 L14,8 L14,4 L4,4 L4,10 L8,10 L8,20 L6,20 L6,12 L2,12 L2,2 L16,2 Z M21,10 L31,16 L11,16 L21,10 Z M16,10 L11,13 L11,10 L16,10 Z M31,10 L31,13 L25,10 L31,10 Z M36,6 L36,8 L30,8 L30,6 L36,6 Z M12,6 L12,8 L6,8 L6,6 L12,6 Z M24,2 L24,4 L18,4 L18,2 L24,2 Z" id="Combined-Shape" fill="#FFFFFF"></path>
        <g id="Group" transform="translate(11.000000, 10.000000)"></g>
    </g>
</svg>