<?xml version="1.0" encoding="UTF-8"?>
<svg width="42px" height="42px" viewBox="0 0 42 42" version="1.1" xmlns="http://www.w3.org/2000/svg" xmlns:xlink="http://www.w3.org/1999/xlink">
    <!-- Generator: Sketch 61 (89581) - https://sketch.com -->
    <title>ec-phone</title>
    <desc>Created with Sketch.</desc>
    <g id="ec-phone" stroke="none" stroke-width="1" fill="none" fill-rule="evenodd">
        <path d="M24,38 L24,40 L18,40 L18,38 L24,38 Z M8,22 L8,32 L4,32 L4,38 L14,38 L14,34 L28,34 L28,38 L38,38 L38,32 L34,32 L34,22 L36,22 L36,30 L40,30 L40,40 L26,40 L26,36 L16,36 L16,40 L2,40 L2,30 L6,30 L6,22 L8,22 Z M36,34 L36,36 L30,36 L30,34 L36,34 Z M12,34 L12,36 L6,36 L6,34 L12,34 Z M24,10 C25.6568542,10 27,11.3431458 27,13 L27,29 C27,30.6568542 25.6568542,32 24,32 L18,32 C16.3431458,32 15,30.6568542 15,29 L15,13 C15,11.3431458 16.3431458,10 18,10 L24,10 Z M12,30 L12,32 L10,32 L10,30 L12,30 Z M32,30 L32,32 L30,32 L30,30 L32,30 Z M21,29 C20.4477153,29 20,29.4477153 20,30 C20,30.5522847 20.4477153,31 21,31 C21.5522847,31 22,30.5522847 22,30 C22,29.4477153 21.5522847,29 21,29 Z M4,14 L4,28 L2,28 L2,14 L4,14 Z M40,14 L40,28 L38,28 L38,14 L40,14 Z M26,12 L16,12 L16,28 L26,28 L26,12 Z M12,14 L12,28 L10,28 L10,14 L12,14 Z M32,14 L32,28 L30,28 L30,14 L32,14 Z M16,2 L16,6 L26,6 L26,2 L40,2 L40,12 L36,12 L36,20 L34,20 L34,10 L38,10 L38,4 L28,4 L28,8 L14,8 L14,4 L4,4 L4,10 L8,10 L8,20 L6,20 L6,12 L2,12 L2,2 L16,2 Z M12,10 L12,12 L10,12 L10,10 L12,10 Z M32,10 L32,12 L30,12 L30,10 L32,10 Z M36,6 L36,8 L30,8 L30,6 L36,6 Z M12,6 L12,8 L6,8 L6,6 L12,6 Z M24,2 L24,4 L18,4 L18,2 L24,2 Z" id="Combined-Shape" fill="#FFFFFF"></path>
    </g>
</svg>