<?xml version="1.0" encoding="UTF-8"?>
<svg width="42px" height="42px" viewBox="0 0 42 42" version="1.1" xmlns="http://www.w3.org/2000/svg" xmlns:xlink="http://www.w3.org/1999/xlink">
    <!-- Generator: Sketch 61 (89581) - https://sketch.com -->
    <title>ec-phone</title>
    <desc>Created with Sketch.</desc>
    <g id="ec-phone" stroke="none" stroke-width="1" fill="none" fill-rule="evenodd">
        <rect id="Rectangle" fill="#FFFFFF" x="2" y="38" width="14" height="2"></rect>
        <rect id="Rectangle" fill="#FFFFFF" transform="translate(9.000000, 3.000000) scale(1, -1) translate(-9.000000, -3.000000) " x="2" y="2" width="14" height="2"></rect>
        <rect id="Rectangle" fill="#FFFFFF" x="26" y="38" width="14" height="2"></rect>
        <rect id="Rectangle" fill="#FFFFFF" transform="translate(33.000000, 3.000000) scale(1, -1) translate(-33.000000, -3.000000) " x="26" y="2" width="14" height="2"></rect>
        <rect id="Rectangle" fill="#FFFFFF" x="18" y="38" width="6" height="2"></rect>
        <rect id="Rectangle" fill="#FFFFFF" transform="translate(21.000000, 3.000000) scale(1, -1) translate(-21.000000, -3.000000) " x="18" y="2" width="6" height="2"></rect>
        <rect id="Rectangle" fill="#FFFFFF" x="14" y="36" width="2" height="2"></rect>
        <rect id="Rectangle" fill="#FFFFFF" transform="translate(15.000000, 5.000000) scale(1, -1) translate(-15.000000, -5.000000) " x="14" y="4" width="2" height="2"></rect>
        <rect id="Rectangle" fill="#FFFFFF" x="26" y="36" width="2" height="2"></rect>
        <rect id="Rectangle" fill="#FFFFFF" transform="translate(27.000000, 5.000000) scale(1, -1) translate(-27.000000, -5.000000) " x="26" y="4" width="2" height="2"></rect>
        <rect id="Rectangle" fill="#FFFFFF" x="2" y="4" width="2" height="8"></rect>
        <rect id="Rectangle" fill="#FFFFFF" transform="translate(39.000000, 8.000000) scale(-1, 1) translate(-39.000000, -8.000000) " x="38" y="4" width="2" height="8"></rect>
        <rect id="Rectangle" fill="#FFFFFF" x="2" y="30" width="2" height="8"></rect>
        <rect id="Rectangle" fill="#FFFFFF" transform="translate(39.000000, 34.000000) scale(-1, 1) translate(-39.000000, -34.000000) " x="38" y="30" width="2" height="8"></rect>
        <rect id="Rectangle" fill="#FFFFFF" x="4" y="10" width="2" height="2"></rect>
        <rect id="Rectangle" fill="#FFFFFF" transform="translate(37.000000, 11.000000) scale(-1, 1) translate(-37.000000, -11.000000) " x="36" y="10" width="2" height="2"></rect>
        <rect id="Rectangle" fill="#FFFFFF" x="4" y="30" width="2" height="2"></rect>
        <rect id="Rectangle" fill="#FFFFFF" transform="translate(37.000000, 31.000000) scale(-1, 1) translate(-37.000000, -31.000000) " x="36" y="30" width="2" height="2"></rect>
        <rect id="Rectangle" fill="#FFFFFF" x="14" y="34" width="14" height="2"></rect>
        <rect id="Rectangle" fill="#FFFFFF" transform="translate(21.000000, 7.000000) scale(1, -1) translate(-21.000000, -7.000000) " x="14" y="6" width="14" height="2"></rect>
        <rect id="Rectangle" fill="#FFFFFF" x="30" y="34" width="6" height="2"></rect>
        <rect id="Rectangle" fill="#FFFFFF" transform="translate(33.000000, 7.000000) scale(1, -1) translate(-33.000000, -7.000000) " x="30" y="6" width="6" height="2"></rect>
        <rect id="Rectangle" fill="#FFFFFF" x="6" y="34" width="6" height="2"></rect>
        <rect id="Rectangle" fill="#FFFFFF" transform="translate(9.000000, 7.000000) scale(1, -1) translate(-9.000000, -7.000000) " x="6" y="6" width="6" height="2"></rect>
        <rect id="Rectangle" fill="#FFFFFF" x="6" y="10" width="2" height="10"></rect>
        <rect id="Rectangle" fill="#FFFFFF" transform="translate(35.000000, 15.000000) scale(-1, 1) translate(-35.000000, -15.000000) " x="34" y="10" width="2" height="10"></rect>
        <rect id="Rectangle" fill="#FFFFFF" x="6" y="22" width="2" height="10"></rect>
        <rect id="Rectangle" fill="#FFFFFF" transform="translate(35.000000, 27.000000) scale(-1, 1) translate(-35.000000, -27.000000) " x="34" y="22" width="2" height="10"></rect>
        <rect id="Rectangle" fill="#FFFFFF" x="2" y="14" width="2" height="14"></rect>
        <rect id="Rectangle" fill="#FFFFFF" x="38" y="14" width="2" height="14"></rect>
        <path d="M24,10 C25.6568542,10 27,11.3431458 27,13 L27,29 C27,30.6568542 25.6568542,32 24,32 L18,32 C16.3431458,32 15,30.6568542 15,29 L15,13 C15,11.3431458 16.3431458,10 18,10 L24,10 Z M21,29 C20.4477153,29 20,29.4477153 20,30 C20,30.5522847 20.4477153,31 21,31 C21.5522847,31 22,30.5522847 22,30 C22,29.4477153 21.5522847,29 21,29 Z M26,12 L16,12 L16,28 L26,28 L26,12 Z" id="Combined-Shape" fill="#FFFFFF"></path>
        <rect id="Rectangle" fill="#FFFFFF" x="10" y="10" width="3" height="2"></rect>
        <rect id="Rectangle" fill="#FFFFFF" x="29" y="10" width="3" height="2"></rect>
        <rect id="Rectangle" fill="#FFFFFF" x="10" y="18" width="3" height="2"></rect>
        <rect id="Rectangle" fill="#FFFFFF" x="29" y="18" width="3" height="2"></rect>
        <rect id="Rectangle" fill="#FFFFFF" x="10" y="26" width="3" height="2"></rect>
        <rect id="Rectangle" fill="#FFFFFF" x="29" y="26" width="3" height="2"></rect>
        <rect id="Rectangle" fill="#FFFFFF" x="10" y="14" width="3" height="2"></rect>
        <rect id="Rectangle" fill="#FFFFFF" x="29" y="14" width="3" height="2"></rect>
        <rect id="Rectangle" fill="#FFFFFF" x="10" y="22" width="3" height="2"></rect>
        <rect id="Rectangle" fill="#FFFFFF" x="29" y="22" width="3" height="2"></rect>
        <rect id="Rectangle" fill="#FFFFFF" x="10" y="30" width="3" height="2"></rect>
        <rect id="Rectangle" fill="#FFFFFF" x="29" y="30" width="3" height="2"></rect>
    </g>
</svg>