<?xml version="1.0" encoding="UTF-8"?>
<svg width="42px" height="42px" viewBox="0 0 42 42" version="1.1" xmlns="http://www.w3.org/2000/svg" xmlns:xlink="http://www.w3.org/1999/xlink">
    <!-- Generator: Sketch 61.1 (89650) - https://sketch.com -->
    <title>ec-x</title>
    <desc>Created with Sketch.</desc>
    <g id="ec-x" stroke="none" stroke-width="1" fill="none" fill-rule="evenodd">
        <polygon id="Path" fill="#FFFFFF" points="4 14 4 20 33 20 31 14 40 21.084175 31 28 33 22 4 22 4 28 2 28 2 14"></polygon>
        <polygon id="Path" fill="#FFFFFF" points="16 2 16 6 26 6 26 2 29 2 40 12 25 12 25 10 35 10 28 4 28 8 14 8 14 4 4 4 4 10 8 10 8 18 6 18 6 12 2 12 2 2"></polygon>
        <polygon id="Path" fill="#FFFFFF" transform="translate(21.000000, 32.000000) scale(1, -1) translate(-21.000000, -32.000000) " points="16 24 16 28 26 28 26 24 29 24 40 34 25 34 25 32 35 32 28 26 28 30 14 30 14 26 4 26 4 32 8 32 8 40 6 40 6 34 2 34 2 24"></polygon>
        <polygon id="Path" fill="#FFFFFF" transform="translate(11.000000, 28.000000) scale(1, -1) translate(-11.000000, -28.000000) " points="12 24 12 32 10 32 10 24"></polygon>
        <polygon id="Path" fill="#FFFFFF" transform="translate(20.500000, 31.000000) scale(1, -1) translate(-20.500000, -31.000000) " points="23 30 23 32 18 32 18 30"></polygon>
        <polygon id="Path" fill="#FFFFFF" transform="translate(23.000000, 25.000000) scale(1, -1) translate(-23.000000, -25.000000) " points="29 24 30 26 16 26 16 24"></polygon>
        <polygon id="Path" fill="#FFFFFF" transform="translate(15.000000, 28.000000) scale(1, -1) translate(-15.000000, -28.000000) " points="16 24 16 32 14 32 14 24"></polygon>
        <polygon id="Path" fill="#FFFFFF" transform="translate(9.000000, 35.000000) scale(1, -1) translate(-9.000000, -35.000000) " points="12 34 12 36 6 36 6 34"></polygon>
        <polygon id="Path" fill="#FFFFFF" transform="translate(21.000000, 39.000000) scale(1, -1) translate(-21.000000, -39.000000) " points="24 38 24 40 18 40 18 38"></polygon>
        <polygon id="Path" fill="#FFFFFF" points="12 10 12 18 10 18 10 10"></polygon>
        <polygon id="Path" fill="#FFFFFF" points="23 10 23 12 18 12 18 10"></polygon>
        <polygon id="Path" fill="#FFFFFF" points="29 16 30 18 16 18 16 16"></polygon>
        <polygon id="Path" fill="#FFFFFF" points="16 10 16 18 14 18 14 10"></polygon>
        <polygon id="Path" fill="#FFFFFF" points="12 6 12 8 6 8 6 6"></polygon>
        <polygon id="Path" fill="#FFFFFF" points="24 2 24 4 18 4 18 2"></polygon>
    </g>
</svg>