<?xml version="1.0" encoding="UTF-8"?>
<svg width="42px" height="42px" viewBox="0 0 42 42" version="1.1" xmlns="http://www.w3.org/2000/svg" xmlns:xlink="http://www.w3.org/1999/xlink">
    <!-- Generator: Sketch 61 (89581) - https://sketch.com -->
    <title>ec-x</title>
    <desc>Created with Sketch.</desc>
    <g id="ec-x" stroke="none" stroke-width="1" fill="none" fill-rule="evenodd">
        <path d="M24,38 L24,40 L18,40 L18,38 L24,38 Z M8,24 L8,32 L4,32 L4,38 L14,38 L14,34 L28,34 L28,38 L38,38 L38,32 L25,32 L25,30 L40,30 L40,40 L26,40 L26,36 L16,36 L16,40 L2,40 L2,30 L6,30 L6,24 L8,24 Z M36,34 L36,36 L30,36 L30,34 L36,34 Z M12,34 L12,36 L6,36 L6,34 L12,34 Z M23,30 L23,32 L18,32 L18,30 L23,30 Z M16,30 L16,32 L14,32 L14,30 L16,30 Z M12,30 L12,32 L10,32 L10,30 L12,30 Z M4,14 L4,20 L25,20 L25,14 L34,21.084175 L25,28 L25,22 L4,22 L4,28 L2,28 L2,14 L4,14 Z M40,14 L40,28 L28,28 L37,21 L28,14 L40,14 Z M23,24 L23,28 L10,28 L10,24 L23,24 Z M16,2 L16,6 L26,6 L26,2 L40,2 L40,12 L25,12 L25,10 L38,10 L38,4 L28,4 L28,8 L14,8 L14,4 L4,4 L4,10 L8,10 L8,18 L6,18 L6,12 L2,12 L2,2 L16,2 Z M23,14 L23,18 L10,18 L10,14 L23,14 Z M23,10 L23,12 L18,12 L18,10 L23,10 Z M16,10 L16,12 L14,12 L14,10 L16,10 Z M12,10 L12,12 L10,12 L10,10 L12,10 Z M36,6 L36,8 L30,8 L30,6 L36,6 Z M12,6 L12,8 L6,8 L6,6 L12,6 Z M24,2 L24,4 L18,4 L18,2 L24,2 Z" id="Combined-Shape" fill="#FFFFFF"></path>
        <g id="Group" transform="translate(4.000000, 14.000000)"></g>
    </g>
</svg>