<?xml version="1.0" encoding="UTF-8"?>
<svg width="42px" height="42px" viewBox="0 0 42 42" version="1.1" xmlns="http://www.w3.org/2000/svg" xmlns:xlink="http://www.w3.org/1999/xlink">
    <!-- Generator: Sketch 61 (89581) - https://sketch.com -->
    <title>el-castillo-emblem</title>
    <desc>Created with Sketch.</desc>
    <g id="el-castillo-emblem" stroke="none" stroke-width="1" fill="none" fill-rule="evenodd">
        <g id="Group" fill="#FFFFFF">
            <g id="Castle">
                <path d="M17,21 L17,42 L16,42 L16,21 L17,21 Z M26,21 L26,42 L25,42 L25,21 L26,21 Z M24,41 L24,42 L18,42 L18,41 L24,41 Z M42,41 L42,42 L27,42 L27,41 L42,41 Z M15,41 L15,42 L0,42 L0,41 L15,41 Z M15,36 L15,40 L1,40 L2,36 L15,36 Z M24,39 L24,40 L18,40 L18,39 L24,39 Z M40,36 L41,40 L27,40 L27,36 L40,36 Z M24,37 L24,38 L18,38 L18,37 L24,37 Z M24,35 L24,36 L18,36 L18,35 L24,35 Z M15,31 L15,35 L3,35 L4,31 L15,31 Z M38,31 L39,35 L27,35 L27,31 L38,31 Z M42,17 L42,35 L40,28.6111111 L40,17 L42,17 Z M2,17 L2,28.6111111 L0,35 L0,17 L2,17 Z M24,33 L24,34 L18,34 L18,33 L24,33 Z M24,31 L24,32 L18,32 L18,31 L24,31 Z M24,29 L24,30 L18,30 L18,29 L24,29 Z M36,26 L37,30 L27,30 L27,26 L36,26 Z M15,26 L15,30 L5,30 L6,26 L15,26 Z M24,27 L24,28 L18,28 L18,27 L24,27 Z M24,25 L24,26 L18,26 L18,25 L24,25 Z M12,17 L12,19 L6,19 L4,26 L4,17 L12,17 Z M38,17 L38,26 L36,19 L30,19 L30,17 L38,17 Z M15,21 L15,25 L7,25 L8,21 L15,21 Z M34,21 L35,25 L27,25 L27,21 L34,21 Z M24,23 L24,24 L18,24 L18,23 L24,23 Z M24,21 L24,22 L18,22 L18,21 L24,21 Z M28,18 L28,20 L14,20 L14,18 L28,18 Z M28,15 L28,17 L22,17 L22,15 L28,15 Z M20,15 L20,17 L14,17 L14,15 L20,15 Z M20,0 L20,2 L2,2 L2,15 L0,15 L0,0 L20,0 Z M42,1.77635684e-15 L42,15 L40,15 L40,2 L22,2 L22,0 L42,1.77635684e-15 Z M38,4 L38,15 L30,15 L30,10 L22,10 L22,4 L38,4 Z M20,4 L20,10 L12,10 L12,15 L4,15 L4,4 L20,4 Z M28,12 L28,14 L14,14 L14,12 L28,12 Z" id="Combined-Shape"></path>
            </g>
        </g>
    </g>
</svg>