<?xml version="1.0" encoding="UTF-8"?>
<svg width="42px" height="42px" viewBox="0 0 42 42" version="1.1" xmlns="http://www.w3.org/2000/svg" xmlns:xlink="http://www.w3.org/1999/xlink">
    <!-- Generator: Sketch 61.1 (89650) - https://sketch.com -->
    <title>el-castillo-emblem</title>
    <desc>Created with Sketch.</desc>
    <g id="el-castillo-emblem" stroke="none" stroke-width="1" fill="none" fill-rule="evenodd">
        <g id="bottom" transform="translate(0.000000, 12.000000)" fill="#FFFFFF">
            <polygon id="Rectangle" points="8 9 15 9 15 13 7 13"></polygon>
            <polygon id="Rectangle" points="6 14 15 14 15 18 5 18"></polygon>
            <polygon id="Rectangle" points="4 19 15 19 15 23 3 23"></polygon>
            <polygon id="Rectangle" points="2 24 15 24 15 28 1 28"></polygon>
            <rect id="Rectangle" x="16" y="9" width="1" height="21"></rect>
            <rect id="Rectangle" x="18" y="9" width="6" height="1"></rect>
            <rect id="Rectangle" x="18" y="11" width="6" height="1"></rect>
            <rect id="Rectangle" x="18" y="13" width="6" height="1"></rect>
            <rect id="Rectangle" x="18" y="15" width="6" height="1"></rect>
            <rect id="Rectangle" x="18" y="17" width="6" height="1"></rect>
            <rect id="Rectangle" x="18" y="19" width="6" height="1"></rect>
            <rect id="Rectangle" x="18" y="21" width="6" height="1"></rect>
            <rect id="Rectangle" x="18" y="23" width="6" height="1"></rect>
            <rect id="Rectangle" x="18" y="19" width="6" height="1"></rect>
            <rect id="Rectangle" x="18" y="25" width="6" height="1"></rect>
            <rect id="Rectangle" x="18" y="21" width="6" height="1"></rect>
            <rect id="Rectangle" x="18" y="27" width="6" height="1"></rect>
            <rect id="Rectangle" x="18" y="23" width="6" height="1"></rect>
            <polygon id="Rectangle" transform="translate(31.000000, 11.000000) scale(-1, 1) translate(-31.000000, -11.000000) " points="28 9 35 9 35 13 27 13"></polygon>
            <polygon id="Rectangle" transform="translate(32.000000, 16.000000) scale(-1, 1) translate(-32.000000, -16.000000) " points="28 14 37 14 37 18 27 18"></polygon>
            <polygon id="Rectangle" transform="translate(33.000000, 21.000000) scale(-1, 1) translate(-33.000000, -21.000000) " points="28 19 39 19 39 23 27 23"></polygon>
            <polygon id="Rectangle" transform="translate(34.000000, 26.000000) scale(-1, 1) translate(-34.000000, -26.000000) " points="28 24 41 24 41 28 27 28"></polygon>
            <rect id="Rectangle" transform="translate(25.500000, 19.500000) scale(-1, 1) translate(-25.500000, -19.500000) " x="25" y="9" width="1" height="21"></rect>
            <rect id="Rectangle" x="18" y="29" width="6" height="1"></rect>
            <rect id="Rectangle" x="14" y="6" width="14" height="2"></rect>
            <rect id="Rectangle" x="14" y="0" width="14" height="2"></rect>
            <rect id="Rectangle" x="22" y="3" width="6" height="2"></rect>
            <rect id="Rectangle" x="14" y="3" width="6" height="2"></rect>
            <rect id="Rectangle" x="27" y="29" width="15" height="1"></rect>
            <rect id="Rectangle" x="0" y="29" width="15" height="1"></rect>
        </g>
        <g id="top" fill="#8080FF">
            <path d="M42,17 L42,35 L40,28.6111111 L40,17 L42,17 Z M2,17 L2,28.6111111 L0,35 L0,17 L2,17 Z M12,17 L12,19 L6,19 L4,26 L4,17 L12,17 Z M38,17 L38,26 L36,19 L30,19 L30,17 L38,17 Z M42,0 L42,15 L40,15 L40,2 L22,2 L22,0 L42,0 Z M38,4 L38,15 L30,15 L30,10 L22,10 L22,4 L38,4 Z M20,4 L20,10 L12,10 L12,15 L4,15 L4,4 L20,4 Z M2,15 L0,15 L0,0 L20,0 L20,2 L2,2 L2,15 Z" id="Shape"></path>
        </g>
    </g>
</svg>