<?xml version="1.0" encoding="UTF-8"?>
<svg width="42px" height="42px" viewBox="0 0 42 42" version="1.1" xmlns="http://www.w3.org/2000/svg" xmlns:xlink="http://www.w3.org/1999/xlink">
    <!-- Generator: Sketch 61.1 (89650) - https://sketch.com -->
    <title>el-castillo-emblem</title>
    <desc>Created with Sketch.</desc>
    <g id="el-castillo-emblem" stroke="none" stroke-width="1" fill="none" fill-rule="evenodd">
        <g id="bottom" transform="translate(0.000000, 12.000000)" fill="#FFFFFF">
            <polygon id="Rectangle" points="8 9 15 9 15 13 7 13"></polygon>
            <polygon id="Rectangle" points="6 14 15 14 15 18 5 18"></polygon>
            <polygon id="Rectangle" points="4 19 15 19 15 23 3 23"></polygon>
            <polygon id="Rectangle" points="2 24 15 24 15 28 1 28"></polygon>
            <rect id="Rectangle" x="16" y="9" width="1" height="21"></rect>
            <rect id="Rectangle" x="18" y="9" width="6" height="1"></rect>
            <rect id="Rectangle" x="18" y="11" width="6" height="1"></rect>
            <rect id="Rectangle" x="18" y="13" width="6" height="1"></rect>
            <rect id="Rectangle" x="18" y="15" width="6" height="1"></rect>
            <rect id="Rectangle" x="18" y="17" width="6" height="1"></rect>
            <rect id="Rectangle" x="18" y="19" width="6" height="1"></rect>
            <rect id="Rectangle" x="18" y="21" width="6" height="1"></rect>
            <rect id="Rectangle" x="18" y="23" width="6" height="1"></rect>
            <rect id="Rectangle" x="18" y="19" width="6" height="1"></rect>
            <rect id="Rectangle" x="18" y="25" width="6" height="1"></rect>
            <rect id="Rectangle" x="18" y="21" width="6" height="1"></rect>
            <rect id="Rectangle" x="18" y="27" width="6" height="1"></rect>
            <rect id="Rectangle" x="18" y="23" width="6" height="1"></rect>
            <polygon id="Rectangle" transform="translate(31.000000, 11.000000) scale(-1, 1) translate(-31.000000, -11.000000) " points="28 9 35 9 35 13 27 13"></polygon>
            <polygon id="Rectangle" transform="translate(32.000000, 16.000000) scale(-1, 1) translate(-32.000000, -16.000000) " points="28 14 37 14 37 18 27 18"></polygon>
            <polygon id="Rectangle" transform="translate(33.000000, 21.000000) scale(-1, 1) translate(-33.000000, -21.000000) " points="28 19 39 19 39 23 27 23"></polygon>
            <polygon id="Rectangle" transform="translate(34.000000, 26.000000) scale(-1, 1) translate(-34.000000, -26.000000) " points="28 24 41 24 41 28 27 28"></polygon>
            <rect id="Rectangle" transform="translate(25.500000, 19.500000) scale(-1, 1) translate(-25.500000, -19.500000) " x="25" y="9" width="1" height="21"></rect>
            <rect id="Rectangle" x="18" y="29" width="6" height="1"></rect>
            <rect id="Rectangle" x="14" y="6" width="14" height="2"></rect>
            <rect id="Rectangle" x="14" y="0" width="14" height="2"></rect>
            <rect id="Rectangle" x="22" y="3" width="6" height="2"></rect>
            <rect id="Rectangle" x="14" y="3" width="6" height="2"></rect>
            <rect id="Rectangle" x="27" y="29" width="15" height="1"></rect>
            <rect id="Rectangle" x="0" y="29" width="15" height="1"></rect>
        </g>
        <g id="top" fill="#8080ff">
            <rect id="Rectangle" transform="translate(11.000000, 1.000000) scale(1, -1) translate(-11.000000, -1.000000) " x="2" y="0" width="18" height="2"></rect>
            <rect id="Rectangle" transform="translate(31.000000, 1.000000) scale(1, -1) translate(-31.000000, -1.000000) " x="22" y="0" width="18" height="2"></rect>
            <rect id="Rectangle" x="0" y="0" width="2" height="15"></rect>
            <rect id="Rectangle" transform="translate(41.000000, 7.500000) scale(-1, 1) translate(-41.000000, -7.500000) " x="40" y="1.77635684e-15" width="2" height="15"></rect>
            <polygon id="Rectangle" transform="translate(41.000000, 26.000000) scale(-1, 1) translate(-41.000000, -26.000000) " points="40 17 42 17 42 28.6111111 40 35"></polygon>
            <polygon id="Rectangle" points="0 17 2 17 2 28.6111111 -2.27373675e-13 35"></polygon>
            <rect id="Rectangle" x="4" y="4" width="16" height="6"></rect>
            <rect id="Rectangle" x="22" y="4" width="16" height="6"></rect>
            <rect id="Rectangle" x="30" y="10" width="8" height="5"></rect>
            <rect id="Rectangle" x="4" y="10" width="8" height="5"></rect>
            <polygon id="Path" points="4 17 12 17 12 19 6 19 4 26"></polygon>
            <polygon id="Path" transform="translate(34.000000, 21.500000) scale(-1, 1) translate(-34.000000, -21.500000) " points="30 17 38 17 38 19 32 19 30 26"></polygon>
        </g>
    </g>
</svg>