<?xml version="1.0" encoding="UTF-8"?>
<svg width="42px" height="42px" viewBox="0 0 42 42" version="1.1" xmlns="http://www.w3.org/2000/svg" xmlns:xlink="http://www.w3.org/1999/xlink">
    <!-- Generator: Sketch 61 (89581) - https://sketch.com -->
    <title>el-castillo-emblem</title>
    <desc>Created with Sketch.</desc>
    <g id="el-castillo-emblem" stroke="none" stroke-width="1" fill="none" fill-rule="evenodd">
        <g id="Group" transform="translate(0.000000, 6.000000)" fill="#FFFFFF">
            <g id="Castle">
                <polygon id="Rectangle" points="8 9 15 9 15 13 7 13"></polygon>
                <polygon id="Rectangle" points="6 14 15 14 15 18 5 18"></polygon>
                <polygon id="Rectangle" points="4 19 15 19 15 23 3 23"></polygon>
                <polygon id="Rectangle" points="2 24 15 24 15 28 1 28"></polygon>
                <rect id="Rectangle" x="16" y="9" width="1" height="21"></rect>
                <rect id="Rectangle" x="18" y="9" width="4" height="1"></rect>
                <rect id="Rectangle" x="18" y="11" width="4" height="1"></rect>
                <rect id="Rectangle" x="18" y="13" width="4" height="1"></rect>
                <rect id="Rectangle" x="18" y="15" width="4" height="1"></rect>
                <rect id="Rectangle" x="18" y="17" width="4" height="1"></rect>
                <rect id="Rectangle" x="18" y="19" width="4" height="1"></rect>
                <rect id="Rectangle" x="18" y="21" width="4" height="1"></rect>
                <rect id="Rectangle" x="18" y="23" width="4" height="1"></rect>
                <rect id="Rectangle" x="18" y="19" width="4" height="1"></rect>
                <rect id="Rectangle" x="18" y="25" width="4" height="1"></rect>
                <rect id="Rectangle" x="18" y="21" width="4" height="1"></rect>
                <rect id="Rectangle" x="18" y="27" width="4" height="1"></rect>
                <rect id="Rectangle" x="18" y="23" width="4" height="1"></rect>
                <polygon id="Rectangle" transform="translate(31.000000, 11.000000) scale(-1, 1) translate(-31.000000, -11.000000) " points="28 9 35 9 35 13 27 13"></polygon>
                <polygon id="Rectangle" transform="translate(32.000000, 16.000000) scale(-1, 1) translate(-32.000000, -16.000000) " points="28 14 37 14 37 18 27 18"></polygon>
                <polygon id="Rectangle" transform="translate(33.000000, 21.000000) scale(-1, 1) translate(-33.000000, -21.000000) " points="28 19 39 19 39 23 27 23"></polygon>
                <polygon id="Rectangle" transform="translate(34.000000, 26.000000) scale(-1, 1) translate(-34.000000, -26.000000) " points="28 24 41 24 41 28 27 28"></polygon>
                <rect id="Rectangle" transform="translate(25.500000, 19.500000) scale(-1, 1) translate(-25.500000, -19.500000) " x="25" y="9" width="1" height="21"></rect>
                <rect id="Rectangle" transform="translate(22.000000, 9.500000) scale(-1, 1) translate(-22.000000, -9.500000) " x="20" y="9" width="4" height="1"></rect>
                <rect id="Rectangle" transform="translate(22.000000, 11.500000) scale(-1, 1) translate(-22.000000, -11.500000) " x="20" y="11" width="4" height="1"></rect>
                <rect id="Rectangle" transform="translate(22.000000, 13.500000) scale(-1, 1) translate(-22.000000, -13.500000) " x="20" y="13" width="4" height="1"></rect>
                <rect id="Rectangle" transform="translate(22.000000, 15.500000) scale(-1, 1) translate(-22.000000, -15.500000) " x="20" y="15" width="4" height="1"></rect>
                <rect id="Rectangle" transform="translate(22.000000, 17.500000) scale(-1, 1) translate(-22.000000, -17.500000) " x="20" y="17" width="4" height="1"></rect>
                <rect id="Rectangle" transform="translate(22.000000, 19.500000) scale(-1, 1) translate(-22.000000, -19.500000) " x="20" y="19" width="4" height="1"></rect>
                <rect id="Rectangle" transform="translate(22.000000, 21.500000) scale(-1, 1) translate(-22.000000, -21.500000) " x="20" y="21" width="4" height="1"></rect>
                <rect id="Rectangle" transform="translate(22.000000, 23.500000) scale(-1, 1) translate(-22.000000, -23.500000) " x="20" y="23" width="4" height="1"></rect>
                <rect id="Rectangle" transform="translate(22.000000, 19.500000) scale(-1, 1) translate(-22.000000, -19.500000) " x="20" y="19" width="4" height="1"></rect>
                <rect id="Rectangle" transform="translate(22.000000, 25.500000) scale(-1, 1) translate(-22.000000, -25.500000) " x="20" y="25" width="4" height="1"></rect>
                <rect id="Rectangle" transform="translate(22.000000, 21.500000) scale(-1, 1) translate(-22.000000, -21.500000) " x="20" y="21" width="4" height="1"></rect>
                <rect id="Rectangle" transform="translate(22.000000, 27.500000) scale(-1, 1) translate(-22.000000, -27.500000) " x="20" y="27" width="4" height="1"></rect>
                <rect id="Rectangle" x="18" y="29" width="4" height="1"></rect>
                <rect id="Rectangle" transform="translate(22.000000, 29.500000) scale(-1, 1) translate(-22.000000, -29.500000) " x="20" y="29" width="4" height="1"></rect>
                <rect id="Rectangle" transform="translate(22.000000, 23.500000) scale(-1, 1) translate(-22.000000, -23.500000) " x="20" y="23" width="4" height="1"></rect>
                <rect id="Rectangle" x="14" y="6" width="14" height="2"></rect>
                <rect id="Rectangle" x="14" y="0" width="14" height="3"></rect>
                <rect id="Rectangle" x="22" y="4" width="6" height="1"></rect>
                <rect id="Rectangle" x="14" y="4" width="6" height="1"></rect>
                <rect id="Rectangle" x="27" y="29" width="15" height="1"></rect>
                <rect id="Rectangle" x="0" y="29" width="15" height="1"></rect>
                <rect id="Rectangle" x="9" y="7" width="4" height="1"></rect>
                <rect id="Rectangle" x="29" y="7" width="4" height="1"></rect>
            </g>
        </g>
    </g>
</svg>